<svg xmlns="http://www.w3.org/2000/svg" xml:space="preserve" width="48" height="48" viewBox="0 0 550 550"
    fill="#848484">
    <style>
        path {
            fill: #171717;
        }

        @media (prefers-color-scheme: dark) {
            path {
                fill: #fafafa;
            }
        }
    </style>
    <path
        d="M275 0A275 275 0 0 0 0 275a275 275 0 0 0 275 275 275 275 0 0 0 275-275A275 275 0 0 0 275 0zm1.773 100c5.936 10.405 11.48 21.067 16.942 31.775 4.091 8.225 8.519 16.284 11.875 24.909 7.901 19.59 14.343 40.223 15.846 61.66.889 13.94-.451 28.528-6.415 41.113-2.658-9.398-5.93-18.594-9.585-27.588-3.577-9.145-8.305-17.673-12.64-26.398-5.18-10.112-10.434-20.183-16.023-30.032-5.49 9.672-10.657 19.55-15.746 29.479-3.567 7.107-7.297 14.128-10.597 21.387-4.578 10.698-8.632 21.67-11.871 32.93-.09-.01-.263-.042-.352-.057-4.4-9.844-6.281-20.835-6.375-31.715-.16-11.801 1.61-23.545 4.344-34.942 2.879-11.998 6.868-23.653 11.441-35.003 3.277-8.6 7.654-16.622 11.73-24.791 5.627-11.022 11.304-22.019 17.426-32.727zm109.582 42.096c1.494 12.701 2.064 25.553 1.422 38.345-.454 7.997-1.295 16.02-3.275 23.754-.225.592-.238 1.436-.898 1.7-8.436 4.987-16.791 10.222-24.44 16.55-12.428 10.203-21.85 23.855-30.838 37.467-.543.84-1.13 1.65-1.762 2.408 3.22-10.121 5.019-20.719 6.006-31.351 1.054-12.277.974-24.826-1.699-36.87-1.006-4.284-2.293-8.528-4.264-12.408 5.566-5.877 11.722-11.077 18.041-15.968 12.845-9.829 26.836-17.997 41.707-23.627zm-220.337.004c11.43 4.264 22.329 10.132 32.59 17.037 9.666 6.555 18.873 13.956 27.154 22.459-4.948 10.561-6.361 22.564-6.563 34.263-.06 15.752 2.154 31.508 6.549 46.526-9.352-14.067-18.81-28.474-31.607-39.182-8.014-6.818-16.893-12.326-25.828-17.601-3.67-13.395-4.056-27.523-3.864-41.393.23-7.39.721-14.77 1.569-22.11zm-74.375 43.75c41.6 11.548 79.647 36.473 109.488 69.7 4.742 5.358 9.412 10.846 13.447 16.86-15.386-11.841-31.507-22.66-48.598-31.406-11.075-5.645-22.482-10.707-34.376-13.94 2.307 7.138 3.074 14.718 3.837 22.2-7.297-7.203-15.713-12.898-23.97-18.7-3.534-2.448-7.134-4.786-10.692-7.173-3.791-3.986-5.836-9.49-7.17-14.922-1.797-7.37-2.12-15.032-1.966-22.62zm367.918.61c.21 10.274-.474 20.922-4.518 30.376-1.32 2.747-2.757 5.625-5.098 7.512-7.26 4.775-14.478 9.646-21.476 14.861-4.405 3.303-8.763 6.712-12.7 10.662.801-7.481 1.424-15.145 3.938-22.226-17.277 4.815-33.6 12.964-49.225 22.15-9.23 5.508-18.196 11.538-26.888 17.992-2.355 1.695-4.581 3.596-6.983 5.215 5.29-7.684 11.375-14.688 17.657-21.426 29.204-30.886 65.617-54.118 105.293-65.115zm-183.579 23.831c7.846 13.581 14.915 27.663 22.006 41.715 4.901 9.337 8.711 19.277 12.264 29.287 6.642 19.292 11.53 39.757 10.547 60.496-.58 11.376-3.255 22.784-8.75 32.576-7.85 14.244-21.284 24.168-35.819 28.893-16.603-4.902-31.732-17.224-39.025-34.336-4.517-10.324-6.201-21.84-6.187-33.192.294-20.324 5.505-40.157 12.377-58.943 3.173-8.61 6.6-17.128 10.855-25.185 6.998-13.92 14.074-27.8 21.732-41.311zM25 217.529c13.776.992 27.43 3.567 40.832 7.117 13.008 3.551 25.807 8.219 37.809 14.739 12.722 6.89 24.709 15.939 33.677 28.008-1.52 14.097-1.436 28.387.15 42.474 2.023 17.163 6.558 34.528 16.253 48.565 2.687 3.905 5.833 7.41 9.236 10.591-18.012-2.301-35.523-8.73-51.363-18.23-15.171-9.16-28.672-21.66-38.961-36.824-8.182-11.993-14.342-25.54-18.485-39.733-2.79-13.252-6.983-26.276-13.42-37.996-4.044-7.248-9.104-14.057-15.728-18.71zm500 0c-5.898 4.522-10.776 10.44-14.586 17.067-5.78 9.954-9.75 21.021-12.672 32.306-.866 3.187-1.319 6.49-2.377 9.616-5.659 18.472-14.909 35.747-27.402 49.804-11.932 13.602-26.677 24.148-42.588 31.508-12.152 5.544-24.973 9.611-38.107 11.164 6.394-5.862 11.58-13.178 15.363-21.256 4.428-9.302 7.205-19.444 8.941-29.707 2.734-16.682 3.07-33.814 1.305-50.633 10.462-14.01 24.85-23.955 39.937-31.209 17.376-8.3 35.942-13.406 54.68-16.537 5.805-.946 11.64-1.713 17.506-2.123zm-378.777 34.674c8.73 3 17.278 6.616 25.652 10.637 9.661 4.699 19.13 9.97 27.813 16.566 6.206 4.77 12.16 10.233 16.355 17.194 1.62 2.842 3.126 5.918 3.59 9.252-1.891 13.222-2.448 26.722-1.09 40.04.974 9.389 2.935 18.75 6.643 27.344 3.098 7.3 7.69 13.882 13.527 18.88-18.317 5.113-38.917 2.427-54.631-9.364-13.004-9.6-21.772-24.471-27.646-39.99-4.443-11.756-6.862-24.34-7.532-36.996-.767-12.444.445-24.877.782-37.315-.066-5.564-.257-11.604-3.463-16.248zm257.816.01c-3.206 4.649-3.379 10.683-3.44 16.242.338 12.782 1.61 25.57.715 38.358-1.114 20.329-7.295 40.324-17.935 57.148-4.985 7.78-11.236 14.68-18.613 19.818-15.513 10.936-35.392 13.272-53.147 8.35a51.888 51.888 0 0 0 13.022-17.85c4.198-9.342 6.3-19.63 7.246-29.914 1.044-11.654.674-23.43-.768-35.023-.154-1.71-.813-3.466-.182-5.135 2.121-7.436 7.002-13.5 12.301-18.568 7.18-6.773 15.397-12.13 23.809-16.9a236.362 236.362 0 0 1 36.992-16.526zM244.471 404.238c2.176 7.249 8.341 12.121 14.67 14.807 5.448 2.291 11.299 3.404 17.127 3.678 8.013-.334 16.338-2.009 23.064-7.006 3.68-2.802 6.79-6.719 8.055-11.453 6.37 6.145 9.882 15.136 11.244 24.109-1.316 3.485-3.815 6.382-6.328 8.967-6.08 5.933-13.958 9.233-21.883 11.023a64.995 64.995 0 0 1-35.975-2.013c-7.723-2.788-15.165-7.588-19.757-15.034-.707-1.249-1.853-2.55-1.292-4.123 1.517-8.568 4.99-17.037 11.075-22.955z" />
</svg>